<svg version="1.1" viewBox="0.0 0.0 100.0 60.0" fill="none" stroke="none" stroke-linecap="square" stroke-miterlimit="10" xmlns:xlink="http://www.w3.org/1999/xlink" xmlns="http://www.w3.org/2000/svg"><clipPath id="p.0"><path d="m0 0l100.0 0l0 60.0l-100.0 0l0 -60.0z" clip-rule="nonzero"/></clipPath><g clip-path="url(#p.0)"><path fill="#000000" fill-opacity="0.0" d="m0 0l100.0 0l0 60.0l-100.0 0z" fill-rule="evenodd"/><path fill="#000000" fill-opacity="0.0" d="m0 0l99.84252 0l0 62.866142l-99.84252 0z" fill-rule="evenodd"/><path fill="#1155cc" d="m3.140625 17.36l0 -8.5l2.421875 0l0.125 2.765625l-0.484375 -0.515625q0.1875 -0.6875 0.625 -1.234375q0.4375 -0.546875 1.03125 -0.859375q0.59375 -0.328125 1.265625 -0.328125q0.296875 0 0.53125 0.046875q0.25 0.046875 0.46875 0.109375l-0.703125 2.828125q-0.1875 -0.109375 -0.484375 -0.171875q-0.296875 -0.078125 -0.609375 -0.078125q-0.359375 0 -0.65625 0.125q-0.296875 0.109375 -0.515625 0.34375q-0.203125 0.21875 -0.328125 0.53125q-0.109375 0.296875 -0.109375 0.6875l0 4.25l-2.578125 0zm10.974884 0.15625q-1.40625 0 -2.453125 -0.5625q-1.03125 -0.5625 -1.609375 -1.546875q-0.578125 -0.984375 -0.578125 -2.25q0 -0.984375 0.3125 -1.796875q0.328125 -0.8125 0.90625 -1.40625q0.578125 -0.609375 1.359375 -0.9375q0.796875 -0.328125 1.734375 -0.328125q0.90625 0 1.640625 0.328125q0.75 0.3125 1.296875 0.890625q0.546875 0.578125 0.828125 1.359375q0.28125 0.78125 0.25 1.703125l-0.015625 0.6875l-6.765625 0l-0.359375 -1.4375l5.046875 0l-0.265625 0.3125l0 -0.328125q-0.03125 -0.390625 -0.25 -0.703125q-0.21875 -0.3125 -0.578125 -0.484375q-0.34375 -0.1875 -0.796875 -0.1875q-0.625 0 -1.0625 0.25q-0.4375 0.25 -0.671875 0.71875q-0.21875 0.46875 -0.21875 1.15625q0 0.703125 0.296875 1.234375q0.296875 0.515625 0.859375 0.8125q0.578125 0.28125 1.359375 0.28125q0.546875 0 0.96875 -0.15625q0.421875 -0.171875 0.921875 -0.546875l1.203125 1.6875q-0.5 0.4375 -1.0625 0.71875q-0.5625 0.265625 -1.140625 0.390625q-0.578125 0.140625 -1.15625 0.140625z" fill-rule="nonzero"/><path fill="#a4c2f4" d="m22.304031 17.51625q-1.25 0 -2.203125 -0.390625q-0.953125 -0.40625 -1.515625 -1.078125l1.5625 -1.34375q0.5 0.5 1.109375 0.734375q0.625 0.21875 1.1875 0.21875q0.234375 0 0.40625 -0.046875q0.171875 -0.046875 0.28125 -0.125q0.125 -0.09375 0.1875 -0.203125q0.078125 -0.125 0.078125 -0.296875q0 -0.3125 -0.296875 -0.484375q-0.140625 -0.078125 -0.484375 -0.1875q-0.328125 -0.125 -0.859375 -0.265625q-0.75 -0.1875 -1.3125 -0.453125q-0.546875 -0.265625 -0.890625 -0.625q-0.328125 -0.328125 -0.5 -0.734375q-0.171875 -0.40625 -0.171875 -0.921875q0 -0.59375 0.28125 -1.0625q0.28125 -0.484375 0.75 -0.828125q0.46875 -0.359375 1.078125 -0.546875q0.625 -0.1875 1.28125 -0.1875q0.703125 0 1.34375 0.15625q0.640625 0.15625 1.1875 0.453125q0.5625 0.28125 0.984375 0.6875l-1.34375 1.5q-0.28125 -0.265625 -0.640625 -0.484375q-0.359375 -0.21875 -0.75 -0.34375q-0.375 -0.125 -0.703125 -0.125q-0.234375 0 -0.421875 0.046875q-0.1875 0.03125 -0.3125 0.125q-0.125 0.078125 -0.1875 0.203125q-0.0625 0.109375 -0.0625 0.28125q0 0.15625 0.078125 0.296875q0.09375 0.140625 0.25 0.25q0.15625 0.09375 0.5 0.21875q0.359375 0.109375 0.96875 0.28125q0.75 0.21875 1.296875 0.46875q0.546875 0.25 0.875 0.609375q0.25 0.265625 0.375 0.625q0.125 0.359375 0.125 0.78125q0 0.8125 -0.453125 1.453125q-0.453125 0.625 -1.25 0.984375q-0.796875 0.359375 -1.828125 0.359375zm5.0606384 3.359375l0 -12.015625l2.421875 0l0.09375 1.90625l-0.46875 -0.140625q0.109375 -0.53125 0.53125 -0.953125q0.4375 -0.4375 1.09375 -0.703125q0.671875 -0.265625 1.40625 -0.265625q1.09375 0 1.9375 0.578125q0.859375 0.5625 1.34375 1.546875q0.484375 0.984375 0.484375 2.28125q0 1.28125 -0.484375 2.28125q-0.484375 0.984375 -1.34375 1.546875q-0.859375 0.5625 -1.96875 0.5625q-0.71875 0 -1.375 -0.265625q-0.65625 -0.28125 -1.109375 -0.734375q-0.4375 -0.46875 -0.578125 -1.015625l0.59375 -0.21875l0 5.609375l-2.578125 0zm4.421875 -5.53125q0.578125 0 1.015625 -0.28125q0.4375 -0.28125 0.671875 -0.765625q0.234375 -0.5 0.234375 -1.1875q0 -0.671875 -0.234375 -1.171875q-0.234375 -0.515625 -0.671875 -0.796875q-0.421875 -0.28125 -1.015625 -0.28125q-0.59375 0 -1.03125 0.28125q-0.421875 0.265625 -0.671875 0.78125q-0.234375 0.515625 -0.234375 1.1875q0 0.6875 0.234375 1.1875q0.25 0.484375 0.671875 0.765625q0.4375 0.28125 1.03125 0.28125zm10.122147 2.171875q-1.328125 0 -2.359375 -0.5625q-1.03125 -0.578125 -1.640625 -1.5625q-0.59375 -1.0 -0.59375 -2.28125q0 -1.28125 0.59375 -2.265625q0.609375 -1.0 1.640625 -1.578125q1.03125 -0.578125 2.359375 -0.578125q1.328125 0 2.359375 0.578125q1.03125 0.578125 1.625 1.578125q0.59375 0.984375 0.59375 2.265625q0 1.28125 -0.59375 2.28125q-0.59375 0.984375 -1.625 1.5625q-1.03125 0.5625 -2.359375 0.5625zm0 -2.203125q0.578125 0 1.015625 -0.28125q0.453125 -0.296875 0.703125 -0.78125q0.265625 -0.5 0.25 -1.140625q0.015625 -0.640625 -0.25 -1.140625q-0.25 -0.515625 -0.703125 -0.796875q-0.4375 -0.296875 -1.015625 -0.296875q-0.578125 0 -1.046875 0.296875q-0.453125 0.28125 -0.703125 0.796875q-0.25 0.5 -0.234375 1.140625q-0.015625 0.640625 0.234375 1.140625q0.25 0.484375 0.703125 0.78125q0.46875 0.28125 1.046875 0.28125zm6.256027 2.046875l0 -8.5l2.421875 0l0.078125 1.734375l-0.5 0.1875q0.171875 -0.578125 0.625 -1.046875q0.453125 -0.46875 1.09375 -0.75q0.640625 -0.296875 1.34375 -0.296875q0.96875 0 1.625 0.390625q0.65625 0.390625 0.984375 1.171875q0.34375 0.765625 0.34375 1.890625l0 5.21875l-2.578125 0l0 -5.015625q0 -0.5 -0.15625 -0.828125q-0.140625 -0.34375 -0.4375 -0.515625q-0.28125 -0.171875 -0.71875 -0.15625q-0.34375 0 -0.625 0.109375q-0.28125 0.109375 -0.5 0.3125q-0.203125 0.1875 -0.328125 0.453125q-0.109375 0.25 -0.109375 0.546875l0 5.09375l-1.265625 0q-0.453125 0 -0.78125 0q-0.3125 0 -0.515625 0zm13.019394 0.15625q-1.25 0 -2.203125 -0.390625q-0.953125 -0.40625 -1.515625 -1.078125l1.5625 -1.34375q0.5 0.5 1.109375 0.734375q0.625 0.21875 1.1875 0.21875q0.234375 0 0.40625 -0.046875q0.171875 -0.046875 0.28125 -0.125q0.125 -0.09375 0.1875 -0.203125q0.078125 -0.125 0.078125 -0.296875q0 -0.3125 -0.296875 -0.484375q-0.140625 -0.078125 -0.484375 -0.1875q-0.328125 -0.125 -0.859375 -0.265625q-0.75 -0.1875 -1.3125 -0.453125q-0.546875 -0.265625 -0.890625 -0.625q-0.328125 -0.328125 -0.5 -0.734375q-0.171875 -0.40625 -0.171875 -0.921875q0 -0.59375 0.28125 -1.0625q0.28125 -0.484375 0.75 -0.828125q0.46875 -0.359375 1.078125 -0.546875q0.625 -0.1875 1.28125 -0.1875q0.703125 0 1.34375 0.15625q0.640625 0.15625 1.1875 0.453125q0.5625 0.28125 0.984375 0.6875l-1.34375 1.5q-0.28125 -0.265625 -0.640625 -0.484375q-0.359375 -0.21875 -0.75 -0.34375q-0.375 -0.125 -0.703125 -0.125q-0.234375 0 -0.421875 0.046875q-0.1875 0.03125 -0.3125 0.125q-0.125 0.078125 -0.1875 0.203125q-0.0625 0.109375 -0.0625 0.28125q0 0.15625 0.078125 0.296875q0.09375 0.140625 0.25 0.25q0.15625 0.09375 0.5 0.21875q0.359375 0.109375 0.96875 0.28125q0.75 0.21875 1.296875 0.46875q0.546875 0.25 0.875 0.609375q0.25 0.265625 0.375 0.625q0.125 0.359375 0.125 0.78125q0 0.8125 -0.453125 1.453125q-0.453125 0.625 -1.25 0.984375q-0.796875 0.359375 -1.828125 0.359375zm5.2012634 -0.15625l0 -8.5l2.5625 0l0 8.5l-2.5625 0zm1.28125 -10.171875q-0.71875 0 -1.125 -0.34375q-0.40625 -0.34375 -0.40625 -0.984375q0 -0.578125 0.40625 -0.9375q0.421875 -0.375 1.125 -0.375q0.71875 0 1.109375 0.34375q0.40625 0.34375 0.40625 0.96875q0 0.59375 -0.40625 0.96875q-0.40625 0.359375 -1.109375 0.359375zm8.775879 10.34375q-0.578125 0 -1.109375 -0.15625q-0.515625 -0.15625 -0.9375 -0.421875q-0.421875 -0.28125 -0.703125 -0.640625q-0.28125 -0.359375 -0.375 -0.75l0.546875 -0.1875l-0.140625 1.96875l-2.375 0l0 -11.828125l2.578125 0l0 5.375l-0.53125 -0.1875q0.09375 -0.421875 0.359375 -0.78125q0.28125 -0.359375 0.6875 -0.640625q0.421875 -0.28125 0.90625 -0.4375q0.5 -0.15625 1.03125 -0.15625q1.109375 0 1.953125 0.578125q0.859375 0.5625 1.359375 1.5625q0.5 1.0 0.5 2.28125q0 1.296875 -0.484375 2.296875q-0.484375 1.0 -1.34375 1.5625q-0.84375 0.5625 -1.921875 0.5625zm-0.671875 -2.15625q0.578125 0 1.015625 -0.28125q0.4375 -0.296875 0.65625 -0.796875q0.234375 -0.5 0.234375 -1.1875q0 -0.671875 -0.234375 -1.1875q-0.21875 -0.515625 -0.65625 -0.78125q-0.4375 -0.28125 -1.015625 -0.28125q-0.59375 0 -1.03125 0.28125q-0.421875 0.265625 -0.671875 0.78125q-0.234375 0.515625 -0.234375 1.1875q0 0.6875 0.234375 1.1875q0.25 0.5 0.671875 0.796875q0.4375 0.28125 1.03125 0.28125zm6.121765 1.984375l0 -11.84375l2.5625 0l0 11.84375l-2.5625 0zm8.73526 0.15625q-1.40625 0 -2.453125 -0.5625q-1.03125 -0.5625 -1.609375 -1.546875q-0.578125 -0.984375 -0.578125 -2.25q0 -0.984375 0.3125 -1.796875q0.328125 -0.8125 0.90625 -1.40625q0.578125 -0.609375 1.359375 -0.9375q0.796875 -0.328125 1.734375 -0.328125q0.90625 0 1.640625 0.328125q0.75 0.3125 1.296875 0.890625q0.546875 0.578125 0.828125 1.359375q0.28125 0.78125 0.25 1.703125l-0.015625 0.6875l-6.765625 0l-0.359375 -1.4375l5.046875 0l-0.265625 0.3125l0 -0.328125q-0.03125 -0.390625 -0.25 -0.703125q-0.21875 -0.3125 -0.578125 -0.484375q-0.34375 -0.1875 -0.796875 -0.1875q-0.625 0 -1.0625 0.25q-0.4375 0.25 -0.671875 0.71875q-0.21875 0.46875 -0.21875 1.15625q0 0.703125 0.296875 1.234375q0.296875 0.515625 0.859375 0.8125q0.578125 0.28125 1.359375 0.28125q0.546875 0 0.96875 -0.15625q0.421875 -0.171875 0.921875 -0.546875l1.203125 1.6875q-0.5 0.4375 -1.0625 0.71875q-0.5625 0.265625 -1.140625 0.390625q-0.578125 0.140625 -1.15625 0.140625z" fill-rule="nonzero"/><path fill="#1155cc" d="m6.859375 36.71625q-1.234375 0 -2.203125 -0.5625q-0.96875 -0.578125 -1.546875 -1.578125q-0.5625 -1.0 -0.5625 -2.265625q0 -1.265625 0.5625 -2.265625q0.578125 -1.0 1.546875 -1.578125q0.96875 -0.578125 2.203125 -0.578125q1.140625 0 2.09375 0.40625q0.953125 0.390625 1.515625 1.109375l-1.390625 1.671875q-0.234375 -0.265625 -0.546875 -0.484375q-0.296875 -0.21875 -0.671875 -0.34375q-0.359375 -0.140625 -0.75 -0.140625q-0.609375 0 -1.078125 0.28125q-0.46875 0.28125 -0.71875 0.78125q-0.25 0.5 -0.25 1.140625q0 0.609375 0.25 1.109375q0.265625 0.484375 0.734375 0.78125q0.46875 0.28125 1.0625 0.28125q0.40625 0 0.75 -0.09375q0.359375 -0.109375 0.65625 -0.3125q0.296875 -0.21875 0.5625 -0.53125l1.375 1.6875q-0.546875 0.6875 -1.515625 1.09375q-0.96875 0.390625 -2.078125 0.390625zm9.0012665 0q-1.328125 0 -2.359375 -0.5625q-1.03125 -0.578125 -1.640625 -1.5625q-0.59375 -1.0 -0.59375 -2.28125q0 -1.28125 0.59375 -2.265625q0.609375 -1.0 1.640625 -1.578125q1.03125 -0.578125 2.359375 -0.578125q1.328125 0 2.359375 0.578125q1.03125 0.578125 1.625 1.578125q0.59375 0.984375 0.59375 2.265625q0 1.28125 -0.59375 2.28125q-0.59375 0.984375 -1.625 1.5625q-1.03125 0.5625 -2.359375 0.5625zm0 -2.203125q0.578125 0 1.015625 -0.28125q0.453125 -0.296875 0.703125 -0.78125q0.265625 -0.5 0.25 -1.140625q0.015625 -0.640625 -0.25 -1.140625q-0.25 -0.515625 -0.703125 -0.796875q-0.4375 -0.296875 -1.015625 -0.296875q-0.578125 0 -1.046875 0.296875q-0.453125 0.28125 -0.703125 0.796875q-0.25 0.5 -0.234375 1.140625q-0.015625 0.640625 0.234375 1.140625q0.25 0.484375 0.703125 0.78125q0.46875 0.28125 1.046875 0.28125zm6.240402 2.046875l0 -8.5l2.421875 0l0.078125 1.546875l-0.328125 0.015625q0.1875 -0.421875 0.484375 -0.734375q0.296875 -0.328125 0.671875 -0.546875q0.375 -0.21875 0.78125 -0.328125q0.40625 -0.109375 0.828125 -0.109375q0.625 0 1.140625 0.203125q0.515625 0.1875 0.890625 0.609375q0.390625 0.421875 0.609375 1.140625l-0.40625 -0.03125l0.140625 -0.25q0.203125 -0.390625 0.53125 -0.703125q0.328125 -0.3125 0.71875 -0.53125q0.40625 -0.21875 0.828125 -0.328125q0.4375 -0.109375 0.84375 -0.109375q1.015625 0 1.6875 0.390625q0.671875 0.390625 1.015625 1.1875q0.34375 0.78125 0.34375 1.890625l0 5.1875l-2.578125 0l0 -4.96875q0 -0.515625 -0.15625 -0.84375q-0.140625 -0.34375 -0.421875 -0.515625q-0.28125 -0.171875 -0.6875 -0.171875q-0.34375 0 -0.625 0.125q-0.28125 0.109375 -0.484375 0.296875q-0.1875 0.1875 -0.296875 0.453125q-0.109375 0.25 -0.109375 0.5625l0 5.0625l-2.578125 0l0 -4.984375q0 -0.484375 -0.15625 -0.8125q-0.140625 -0.34375 -0.4375 -0.515625q-0.28125 -0.1875 -0.65625 -0.1875q-0.34375 0 -0.625 0.125q-0.28125 0.109375 -0.484375 0.296875q-0.1875 0.1875 -0.296875 0.453125q-0.109375 0.25 -0.109375 0.546875l0 5.078125l-2.578125 0zm15.407654 3.515625l0 -12.015625l2.421875 0l0.09375 1.90625l-0.46875 -0.140625q0.109375 -0.53125 0.53125 -0.953125q0.4375 -0.4375 1.09375 -0.703125q0.671875 -0.265625 1.40625 -0.265625q1.09375 0 1.9375 0.578125q0.859375 0.5625 1.34375 1.546875q0.484375 0.984375 0.484375 2.28125q0 1.28125 -0.484375 2.28125q-0.484375 0.984375 -1.34375 1.546875q-0.859375 0.5625 -1.96875 0.5625q-0.71875 0 -1.375 -0.265625q-0.65625 -0.28125 -1.109375 -0.734375q-0.4375 -0.46875 -0.578125 -1.015625l0.59375 -0.21875l0 5.609375l-2.578125 0zm4.421875 -5.53125q0.578125 0 1.015625 -0.28125q0.4375 -0.28125 0.671875 -0.765625q0.234375 -0.5 0.234375 -1.1875q0 -0.671875 -0.234375 -1.171875q-0.234375 -0.515625 -0.671875 -0.796875q-0.421875 -0.28125 -1.015625 -0.28125q-0.59375 0 -1.03125 0.28125q-0.421875 0.265625 -0.671875 0.78125q-0.234375 0.515625 -0.234375 1.1875q0 0.6875 0.234375 1.1875q0.25 0.484375 0.671875 0.765625q0.4375 0.28125 1.03125 0.28125zm9.012772 2.1875q-0.9375 0 -1.609375 -0.40625q-0.65625 -0.40625 -1.015625 -1.171875q-0.359375 -0.765625 -0.359375 -1.84375l0 -5.25l2.5625 0l0 4.90625q0 0.5 0.15625 0.875q0.171875 0.359375 0.484375 0.5625q0.328125 0.203125 0.78125 0.203125q0.328125 0 0.609375 -0.109375q0.28125 -0.109375 0.46875 -0.3125q0.203125 -0.203125 0.3125 -0.46875q0.125 -0.265625 0.125 -0.578125l0 -5.078125l2.578125 0l0 8.5l-2.421875 0l-0.109375 -1.75l0.484375 -0.1875q-0.203125 0.609375 -0.65625 1.078125q-0.4375 0.46875 -1.0625 0.75q-0.625 0.28125 -1.328125 0.28125zm8.084518 -0.171875l0 -10.640625l2.5625 0l0 10.640625l-2.5625 0zm-1.5 -6.25l0 -2.25l5.703125 0l0 2.25l-5.703125 0z" fill-rule="nonzero"/><path fill="#a4c2f4" d="m73.64775 36.56l0 -8.5l2.421875 0l0.078125 1.734375l-0.5 0.1875q0.171875 -0.578125 0.625 -1.046875q0.453125 -0.46875 1.09375 -0.75q0.640625 -0.296875 1.34375 -0.296875q0.96875 0 1.625 0.390625q0.65625 0.390625 0.984375 1.171875q0.34375 0.765625 0.34375 1.890625l0 5.21875l-2.578125 0l0 -5.015625q0 -0.5 -0.15625 -0.828125q-0.140625 -0.34375 -0.4375 -0.515625q-0.28125 -0.171875 -0.71875 -0.15625q-0.34375 0 -0.625 0.109375q-0.28125 0.109375 -0.5 0.3125q-0.203125 0.1875 -0.328125 0.453125q-0.109375 0.25 -0.109375 0.546875l0 5.09375l-1.265625 0q-0.453125 0 -0.78125 0q-0.3125 0 -0.515625 0zm14.050644 3.6875q-1.046875 0 -2.078125 -0.3125q-1.03125 -0.296875 -1.671875 -0.78125l0.890625 -1.796875q0.34375 0.234375 0.75 0.390625q0.40625 0.171875 0.84375 0.265625q0.453125 0.09375 0.921875 0.09375q0.8125 0 1.328125 -0.234375q0.515625 -0.234375 0.765625 -0.734375q0.265625 -0.484375 0.265625 -1.21875l0 -1.421875l0.484375 0.078125q-0.109375 0.53125 -0.546875 0.96875q-0.4375 0.421875 -1.078125 0.6875q-0.640625 0.265625 -1.359375 0.265625q-1.15625 0 -2.0625 -0.53125q-0.90625 -0.546875 -1.421875 -1.5q-0.515625 -0.953125 -0.515625 -2.1875q0 -1.28125 0.5 -2.265625q0.515625 -0.984375 1.40625 -1.546875q0.90625 -0.578125 2.03125 -0.578125q0.46875 0 0.90625 0.109375q0.453125 0.109375 0.828125 0.296875q0.375 0.1875 0.671875 0.4375q0.296875 0.25 0.46875 0.53125q0.1875 0.28125 0.25 0.59375l-0.515625 0.125l0.09375 -1.921875l2.421875 0l0 7.8125q0 1.046875 -0.3125 1.84375q-0.3125 0.8125 -0.90625 1.375q-0.59375 0.578125 -1.453125 0.859375q-0.84375 0.296875 -1.90625 0.296875zm0.0625 -5.734375q0.625 0 1.078125 -0.28125q0.453125 -0.28125 0.703125 -0.765625q0.25 -0.5 0.25 -1.171875q0 -0.671875 -0.25 -1.171875q-0.25 -0.515625 -0.703125 -0.796875q-0.453125 -0.28125 -1.078125 -0.28125q-0.609375 0 -1.0625 0.28125q-0.453125 0.28125 -0.703125 0.796875q-0.234375 0.5 -0.234375 1.171875q0 0.671875 0.234375 1.171875q0.25 0.484375 0.703125 0.765625q0.453125 0.28125 1.0625 0.28125z" fill-rule="nonzero"/><path fill="#a4c2f4" d="m6.859375 55.916252q-1.234375 0 -2.203125 -0.5625q-0.96875 -0.578125 -1.546875 -1.578125q-0.5625 -1.0 -0.5625 -2.265625q0 -1.265625 0.5625 -2.265625q0.578125 -1.0 1.546875 -1.578125q0.96875 -0.578125 2.203125 -0.578125q1.140625 0 2.09375 0.40625q0.953125 0.390625 1.515625 1.109375l-1.390625 1.671875q-0.234375 -0.265625 -0.546875 -0.484375q-0.296875 -0.21875 -0.671875 -0.34375q-0.359375 -0.140625 -0.75 -0.140625q-0.609375 0 -1.078125 0.28125q-0.46875 0.28125 -0.71875 0.78125q-0.25 0.5 -0.25 1.140625q0 0.609375 0.25 1.109375q0.265625 0.484375 0.734375 0.78125q0.46875 0.28125 1.0625 0.28125q0.40625 0 0.75 -0.09375q0.359375 -0.109375 0.65625 -0.3125q0.296875 -0.21875 0.5625 -0.53125l1.375 1.6875q-0.546875 0.6875 -1.515625 1.09375q-0.96875 0.390625 -2.078125 0.390625zm9.0012665 0q-1.328125 0 -2.359375 -0.5625q-1.03125 -0.578125 -1.640625 -1.5625q-0.59375 -1.0 -0.59375 -2.28125q0 -1.28125 0.59375 -2.265625q0.609375 -1.0 1.640625 -1.578125q1.03125 -0.578125 2.359375 -0.578125q1.328125 0 2.359375 0.578125q1.03125 0.578125 1.625 1.578125q0.59375 0.984375 0.59375 2.265625q0 1.28125 -0.59375 2.28125q-0.59375 0.984375 -1.625 1.5625q-1.03125 0.5625 -2.359375 0.5625zm0 -2.203125q0.578125 0 1.015625 -0.28125q0.453125 -0.296875 0.703125 -0.78125q0.265625 -0.5 0.25 -1.140625q0.015625 -0.640625 -0.25 -1.140625q-0.25 -0.515625 -0.703125 -0.796875q-0.4375 -0.296875 -1.015625 -0.296875q-0.578125 0 -1.046875 0.296875q-0.453125 0.28125 -0.703125 0.796875q-0.25 0.5 -0.234375 1.140625q-0.015625 0.640625 0.234375 1.140625q0.25 0.484375 0.703125 0.78125q0.46875 0.28125 1.046875 0.28125zm6.271652 2.046875l0 -11.84375l2.5625 0l0 11.84375l-2.5625 0zm4.8640137 0l0 -11.84375l2.5625 0l0 11.84375l-2.5625 0zm8.73526 0.15625q-1.40625 0 -2.453125 -0.5625q-1.03125 -0.5625 -1.609375 -1.546875q-0.578125 -0.984375 -0.578125 -2.25q0 -0.984375 0.3125 -1.796875q0.328125 -0.8125 0.90625 -1.40625q0.578125 -0.609375 1.359375 -0.9375q0.796875 -0.328125 1.734375 -0.328125q0.90625 0 1.640625 0.328125q0.75 0.3125 1.296875 0.890625q0.546875 0.578125 0.828125 1.359375q0.28125 0.78125 0.25 1.703125l-0.015625 0.6875l-6.765625 0l-0.359375 -1.4375l5.046875 0l-0.265625 0.3125l0 -0.328125q-0.03125 -0.390625 -0.25 -0.703125q-0.21875 -0.3125 -0.578125 -0.484375q-0.34375 -0.1875 -0.796875 -0.1875q-0.625 0 -1.0625 0.25q-0.4375 0.25 -0.671875 0.71875q-0.21875 0.46875 -0.21875 1.15625q0 0.703125 0.296875 1.234375q0.296875 0.515625 0.859375 0.8125q0.578125 0.28125 1.359375 0.28125q0.546875 0 0.96875 -0.15625q0.421875 -0.171875 0.921875 -0.546875l1.203125 1.6875q-0.5 0.4375 -1.0625 0.71875q-0.5625 0.265625 -1.140625 0.390625q-0.578125 0.140625 -1.15625 0.140625zm9.047897 0q-1.234375 0 -2.203125 -0.5625q-0.96875 -0.578125 -1.546875 -1.578125q-0.5625 -1.0 -0.5625 -2.265625q0 -1.265625 0.5625 -2.265625q0.578125 -1.0 1.546875 -1.578125q0.96875 -0.578125 2.203125 -0.578125q1.140625 0 2.09375 0.40625q0.953125 0.390625 1.515625 1.109375l-1.390625 1.671875q-0.234375 -0.265625 -0.546875 -0.484375q-0.296875 -0.21875 -0.671875 -0.34375q-0.359375 -0.140625 -0.75 -0.140625q-0.609375 0 -1.078125 0.28125q-0.46875 0.28125 -0.71875 0.78125q-0.25 0.5 -0.25 1.140625q0 0.609375 0.25 1.109375q0.265625 0.484375 0.734375 0.78125q0.46875 0.28125 1.0625 0.28125q0.40625 0 0.75 -0.09375q0.359375 -0.109375 0.65625 -0.3125q0.296875 -0.21875 0.5625 -0.53125l1.375 1.6875q-0.546875 0.6875 -1.515625 1.09375q-0.96875 0.390625 -2.078125 0.390625zm5.7043915 -0.15625l0 -10.640625l2.5625 0l0 10.640625l-2.5625 0zm-1.5 -6.25l0 -2.25l5.703125 0l0 2.25l-5.703125 0zm7.3055115 6.25l0 -8.5l2.5625 0l0 8.5l-2.5625 0zm1.28125 -10.171875q-0.71875 0 -1.125 -0.34375q-0.40625 -0.34375 -0.40625 -0.984375q0 -0.578125 0.40625 -0.9375q0.421875 -0.375 1.125 -0.375q0.71875 0 1.109375 0.34375q0.40625 0.34375 0.40625 0.96875q0 0.59375 -0.40625 0.96875q-0.40625 0.359375 -1.109375 0.359375zm6.291504 10.171875l-3.5625 -8.5l2.84375 0l2.109375 6.359375l-0.625 0.0625l2.171875 -6.421875l2.796875 0l-3.71875 8.5l-2.015625 0zm10.877518 0.15625q-1.40625 0 -2.453125 -0.5625q-1.03125 -0.5625 -1.609375 -1.546875q-0.578125 -0.984375 -0.578125 -2.25q0 -0.984375 0.3125 -1.796875q0.328125 -0.8125 0.90625 -1.40625q0.578125 -0.609375 1.359375 -0.9375q0.796875 -0.328125 1.734375 -0.328125q0.90625 0 1.640625 0.328125q0.75 0.3125 1.296875 0.890625q0.546875 0.578125 0.828125 1.359375q0.28125 0.78125 0.25 1.703125l-0.015625 0.6875l-6.765625 0l-0.359375 -1.4375l5.046875 0l-0.265625 0.3125l0 -0.328125q-0.03125 -0.390625 -0.25 -0.703125q-0.21875 -0.3125 -0.578125 -0.484375q-0.34375 -0.1875 -0.796875 -0.1875q-0.625 0 -1.0625 0.25q-0.4375 0.25 -0.671875 0.71875q-0.21875 0.46875 -0.21875 1.15625q0 0.703125 0.296875 1.234375q0.296875 0.515625 0.859375 0.8125q0.578125 0.28125 1.359375 0.28125q0.546875 0 0.96875 -0.15625q0.421875 -0.171875 0.921875 -0.546875l1.203125 1.6875q-0.5 0.4375 -1.0625 0.71875q-0.5625 0.265625 -1.140625 0.390625q-0.578125 0.140625 -1.15625 0.140625z" fill-rule="nonzero"/><path fill="#000000" fill-opacity="0.0" d="m66.39004 36.096302c2.372795 -1.9462166 6.1212387 -7.9393997 2.7655945 -7.9393997c-3.2845383 0 -1.272255 7.087467 1.8437347 7.9393997" fill-rule="evenodd"/><path stroke="#1255cc" stroke-width="2.0" stroke-linejoin="round" stroke-linecap="butt" d="m66.39004 36.096302c2.372795 -1.9462166 6.1212387 -7.9393997 2.7655945 -7.9393997c-3.2845383 0 -1.272255 7.087467 1.8437347 7.9393997" fill-rule="evenodd"/><path fill="#1255cc" d="m65.45662 36.0708l0 0c0 -0.52184296 0.43009186 -0.94488144 0.9606323 -0.94488144l0 0c0.254776 0 0.499115 0.09954834 0.6792679 0.27674866c0.1801529 0.17720032 0.28136444 0.41753387 0.28136444 0.6681328l0 0c0 0.52184296 -0.43009186 0.94488144 -0.9606323 0.94488144l0 0c-0.53054047 0 -0.9606323 -0.42303848 -0.9606323 -0.94488144z" fill-rule="evenodd"/><path fill="#1255cc" d="m69.91084 36.0563l0 0c0 -0.52184296 0.43009186 -0.94488144 0.9606323 -0.94488144l0 0c0.254776 0 0.499115 0.09954834 0.6792679 0.27674866c0.1801529 0.17720032 0.28136444 0.41753387 0.28136444 0.6681328l0 0c0 0.52184296 -0.43009186 0.94488144 -0.9606323 0.94488144l0 0c-0.53054047 0 -0.9606323 -0.42303848 -0.9606323 -0.94488144z" fill-rule="evenodd"/><path fill="#a4c2f4" d="m67.88003 24.129995l0 0c0 -0.80016136 0.7614746 -1.4488201 1.7007904 -1.4488201l0 0c0.9393158 0 1.7007904 0.64865875 1.7007904 1.4488201l0 0c0 0.80015945 -0.7614746 1.4488182 -1.7007904 1.4488182l0 0c-0.9393158 0 -1.7007904 -0.64865875 -1.7007904 -1.4488182z" fill-rule="evenodd"/></g></svg>