<svg version="1.1" viewBox="0.0 0.0 409.2965879265092 254.06561679790028" fill="none" stroke="none" stroke-linecap="square" stroke-miterlimit="10" xmlns:xlink="http://www.w3.org/1999/xlink" xmlns="http://www.w3.org/2000/svg"><clipPath id="p.0"><path d="m0 0l409.2966 0l0 254.06561l-409.2966 0l0 -254.06561z" clip-rule="nonzero"/></clipPath><g clip-path="url(#p.0)"><path fill="#000000" fill-opacity="0.0" d="m0 0l409.2966 0l0 254.06561l-409.2966 0z" fill-rule="evenodd"/><path fill="#000000" fill-opacity="0.0" d="m0 0l408.59842 0l0 261.7953l-408.59842 0z" fill-rule="evenodd"/><path fill="#1155cc" d="m13.734375 73.0l0 -35.390625l10.125 0l0.46875 11.53125l-2.0 -2.203125q0.796875 -2.859375 2.625 -5.125q1.84375 -2.28125 4.3125 -3.609375q2.46875 -1.328125 5.265625 -1.328125q1.203125 0 2.234375 0.203125q1.03125 0.1875 1.890625 0.453125l-2.921875 11.8125q-0.734375 -0.46875 -1.96875 -0.765625q-1.234375 -0.3125 -2.5625 -0.3125q-1.46875 0 -2.734375 0.5q-1.265625 0.5 -2.140625 1.4375q-0.859375 0.9375 -1.359375 2.203125q-0.5 1.265625 -0.5 2.859375l0 17.734375l-10.734375 0zm45.72136 0.671875q-5.859375 0 -10.203125 -2.359375q-4.328125 -2.375 -6.734375 -6.46875q-2.390625 -4.109375 -2.390625 -9.375q0 -4.0625 1.328125 -7.453125q1.34375 -3.40625 3.734375 -5.90625q2.40625 -2.5 5.703125 -3.859375q3.296875 -1.375 7.234375 -1.375q3.734375 0 6.828125 1.328125q3.109375 1.328125 5.375 3.734375q2.265625 2.40625 3.453125 5.671875q1.203125 3.265625 1.078125 7.125l-0.078125 2.875l-28.1875 0l-1.53125 -6.0l21.0625 0l-1.140625 1.265625l0 -1.34375q-0.125 -1.65625 -1.03125 -2.953125q-0.890625 -1.3125 -2.359375 -2.046875q-1.46875 -0.734375 -3.34375 -0.734375q-2.59375 0 -4.4375 1.046875q-1.828125 1.03125 -2.765625 3.0q-0.921875 1.953125 -0.921875 4.828125q0 2.9375 1.234375 5.109375q1.234375 2.15625 3.59375 3.359375q2.375 1.1875 5.640625 1.1875q2.265625 0 4.03125 -0.65625q1.765625 -0.671875 3.828125 -2.265625l5.0 7.0625q-2.0625 1.796875 -4.40625 2.9375q-2.328125 1.125 -4.765625 1.6875q-2.421875 0.578125 -4.828125 0.578125z" fill-rule="nonzero"/><path fill="#a4c2f4" d="m93.59448 73.671875q-5.203125 0 -9.171875 -1.671875q-3.96875 -1.671875 -6.296875 -4.46875l6.46875 -5.59375q2.0625 2.0625 4.65625 3.03125q2.609375 0.96875 4.9375 0.96875q0.9375 0 1.65625 -0.203125q0.734375 -0.203125 1.234375 -0.5625q0.5 -0.375 0.765625 -0.875q0.28125 -0.5 0.28125 -1.15625q0 -1.34375 -1.203125 -2.078125q-0.609375 -0.328125 -2.015625 -0.796875q-1.390625 -0.46875 -3.59375 -1.0625q-3.125 -0.796875 -5.421875 -1.890625q-2.296875 -1.109375 -3.765625 -2.578125q-1.34375 -1.390625 -2.078125 -3.09375q-0.71875 -1.703125 -0.71875 -3.84375q0 -2.453125 1.15625 -4.453125q1.171875 -2.0 3.140625 -3.46875q1.96875 -1.46875 4.53125 -2.234375q2.5625 -0.765625 5.296875 -0.765625q2.9375 0 5.59375 0.671875q2.671875 0.65625 4.96875 1.859375q2.296875 1.203125 4.09375 2.859375l-5.59375 6.265625q-1.203125 -1.125 -2.703125 -2.015625q-1.5 -0.90625 -3.09375 -1.4375q-1.59375 -0.546875 -2.9375 -0.546875q-1.0 0 -1.765625 0.171875q-0.765625 0.171875 -1.296875 0.546875q-0.53125 0.359375 -0.796875 0.859375q-0.265625 0.5 -0.265625 1.15625q0 0.671875 0.359375 1.28125q0.375 0.59375 1.03125 0.984375q0.671875 0.40625 2.140625 0.90625q1.46875 0.5 4.0 1.234375q3.125 0.859375 5.390625 1.9375q2.265625 1.0625 3.609375 2.53125q1.0625 1.125 1.59375 2.625q0.53125 1.5 0.53125 3.234375q0 3.40625 -1.90625 6.046875q-1.890625 2.625 -5.21875 4.125q-3.328125 1.5 -7.59375 1.5zm21.057388 14.0l0 -50.0625l10.125 0l0.40625 7.921875l-2.0 -0.59375q0.46875 -2.203125 2.265625 -4.0q1.796875 -1.796875 4.5625 -2.890625q2.765625 -1.109375 5.828125 -1.109375q4.546875 0 8.078125 2.375q3.53125 2.359375 5.5625 6.46875q2.03125 4.09375 2.03125 9.484375q0 5.34375 -2.03125 9.484375q-2.03125 4.125 -5.609375 6.484375q-3.5625 2.359375 -8.15625 2.359375q-3.0 0 -5.734375 -1.125q-2.734375 -1.140625 -4.609375 -3.0625q-1.859375 -1.9375 -2.453125 -4.203125l2.46875 -0.9375l0 23.40625l-10.734375 0zm18.46875 -23.078125q2.390625 0 4.1875 -1.15625q1.8125 -1.171875 2.796875 -3.234375q1.0 -2.0625 1.0 -4.9375q0 -2.796875 -1.0 -4.890625q-0.984375 -2.109375 -2.765625 -3.265625q-1.765625 -1.171875 -4.21875 -1.171875q-2.46875 0 -4.28125 1.140625q-1.796875 1.125 -2.796875 3.265625q-1.0 2.125 -1.0 4.921875q0 2.875 1.0 4.9375q1.0 2.0625 2.796875 3.234375q1.8125 1.15625 4.28125 1.15625zm42.11403 9.078125q-5.53125 0 -9.828125 -2.390625q-4.296875 -2.40625 -6.796875 -6.53125q-2.5 -4.140625 -2.5 -9.484375q0 -5.328125 2.5 -9.453125q2.5 -4.140625 6.796875 -6.53125q4.296875 -2.40625 9.828125 -2.40625q5.53125 0 9.828125 2.40625q4.3125 2.390625 6.765625 6.53125q2.46875 4.125 2.46875 9.453125q0 5.34375 -2.46875 9.484375q-2.453125 4.125 -6.765625 6.53125q-4.296875 2.390625 -9.828125 2.390625zm0 -9.203125q2.40625 0 4.265625 -1.203125q1.875 -1.203125 2.9375 -3.265625q1.0625 -2.0625 1.0 -4.734375q0.0625 -2.65625 -1.0 -4.75q-1.0625 -2.109375 -2.9375 -3.3125q-1.859375 -1.203125 -4.265625 -1.203125q-2.390625 0 -4.296875 1.203125q-1.890625 1.203125 -2.96875 3.3125q-1.0625 2.09375 -1.0 4.75q-0.0625 2.671875 1.0 4.734375q1.078125 2.0625 2.96875 3.265625q1.90625 1.203125 4.296875 1.203125zm26.070465 8.53125l0 -35.390625l10.125 0l0.34375 7.1875l-2.140625 0.8125q0.734375 -2.40625 2.625 -4.375q1.90625 -1.96875 4.578125 -3.15625q2.671875 -1.203125 5.59375 -1.203125q4.0 0 6.734375 1.640625q2.734375 1.625 4.125 4.859375q1.40625 3.234375 1.40625 7.890625l0 21.734375l-10.734375 0l0 -20.859375q0 -2.140625 -0.59375 -3.53125q-0.59375 -1.40625 -1.828125 -2.109375q-1.234375 -0.703125 -3.03125 -0.625q-1.40625 0 -2.609375 0.4375q-1.203125 0.421875 -2.078125 1.265625q-0.859375 0.828125 -1.359375 1.890625q-0.5 1.0625 -0.5 2.328125l0 21.203125l-5.265625 0q-1.859375 0 -3.203125 0q-1.328125 0 -2.1875 0zm54.264282 0.671875q-5.203125 0 -9.171875 -1.671875q-3.96875 -1.671875 -6.296875 -4.46875l6.46875 -5.59375q2.0625 2.0625 4.65625 3.03125q2.609375 0.96875 4.9375 0.96875q0.9375 0 1.65625 -0.203125q0.734375 -0.203125 1.234375 -0.5625q0.5 -0.375 0.765625 -0.875q0.28125 -0.5 0.28125 -1.15625q0 -1.34375 -1.203125 -2.078125q-0.609375 -0.328125 -2.015625 -0.796875q-1.390625 -0.46875 -3.59375 -1.0625q-3.125 -0.796875 -5.421875 -1.890625q-2.296875 -1.109375 -3.765625 -2.578125q-1.34375 -1.390625 -2.078125 -3.09375q-0.71875 -1.703125 -0.71875 -3.84375q0 -2.453125 1.15625 -4.453125q1.171875 -2.0 3.140625 -3.46875q1.96875 -1.46875 4.53125 -2.234375q2.5625 -0.765625 5.296875 -0.765625q2.9375 0 5.59375 0.671875q2.671875 0.65625 4.96875 1.859375q2.296875 1.203125 4.09375 2.859375l-5.59375 6.265625q-1.203125 -1.125 -2.703125 -2.015625q-1.5 -0.90625 -3.09375 -1.4375q-1.59375 -0.546875 -2.9375 -0.546875q-1.0 0 -1.765625 0.171875q-0.765625 0.171875 -1.296875 0.546875q-0.53125 0.359375 -0.796875 0.859375q-0.265625 0.5 -0.265625 1.15625q0 0.671875 0.359375 1.28125q0.375 0.59375 1.03125 0.984375q0.671875 0.40625 2.140625 0.90625q1.46875 0.5 4.0 1.234375q3.125 0.859375 5.390625 1.9375q2.265625 1.0625 3.609375 2.53125q1.0625 1.125 1.59375 2.625q0.53125 1.5 0.53125 3.234375q0 3.40625 -1.90625 6.046875q-1.890625 2.625 -5.21875 4.125q-3.328125 1.5 -7.59375 1.5zm21.651123 -0.671875l0 -35.390625l10.671875 0l0 35.390625l-10.671875 0zm5.34375 -42.390625q-3.0 0 -4.703125 -1.4375q-1.703125 -1.4375 -1.703125 -4.09375q0 -2.40625 1.734375 -3.9375q1.734375 -1.53125 4.671875 -1.53125q3.0 0 4.65625 1.4375q1.671875 1.421875 1.671875 4.03125q0 2.46875 -1.703125 4.0q-1.703125 1.53125 -4.625 1.53125zm36.591522 43.125q-2.40625 0 -4.609375 -0.671875q-2.1875 -0.65625 -3.953125 -1.78125q-1.765625 -1.140625 -2.9375 -2.640625q-1.171875 -1.5 -1.5625 -3.109375l2.328125 -0.796875l-0.59375 8.203125l-9.9375 0l0 -49.265625l10.734375 0l0 22.40625l-2.203125 -0.8125q0.40625 -1.734375 1.53125 -3.234375q1.140625 -1.5 2.859375 -2.65625q1.734375 -1.171875 3.796875 -1.828125q2.078125 -0.671875 4.28125 -0.671875q4.59375 0 8.15625 2.375q3.5625 2.359375 5.625 6.53125q2.078125 4.15625 2.078125 9.484375q0 5.40625 -2.03125 9.578125q-2.03125 4.15625 -5.5625 6.53125q-3.53125 2.359375 -8.0 2.359375zm-2.796875 -9.0q2.390625 0 4.1875 -1.203125q1.8125 -1.203125 2.765625 -3.296875q0.96875 -2.09375 0.96875 -4.96875q0 -2.796875 -0.96875 -4.921875q-0.953125 -2.140625 -2.765625 -3.265625q-1.796875 -1.140625 -4.1875 -1.140625q-2.46875 0 -4.28125 1.140625q-1.796875 1.125 -2.796875 3.265625q-1.0 2.125 -1.0 4.921875q0 2.875 1.0 4.96875q1.0 2.09375 2.796875 3.296875q1.8125 1.203125 4.28125 1.203125zm25.453644 8.265625l0 -49.328125l10.671875 0l0 49.328125l-10.671875 0zm36.393738 0.671875q-5.859375 0 -10.203125 -2.359375q-4.328125 -2.375 -6.734375 -6.46875q-2.390625 -4.109375 -2.390625 -9.375q0 -4.0625 1.328125 -7.453125q1.34375 -3.40625 3.734375 -5.90625q2.40625 -2.5 5.703125 -3.859375q3.296875 -1.375 7.234375 -1.375q3.734375 0 6.828125 1.328125q3.109375 1.328125 5.375 3.734375q2.265625 2.40625 3.453125 5.671875q1.203125 3.265625 1.078125 7.125l-0.078125 2.875l-28.1875 0l-1.53125 -6.0l21.0625 0l-1.140625 1.265625l0 -1.34375q-0.125 -1.65625 -1.03125 -2.953125q-0.890625 -1.3125 -2.359375 -2.046875q-1.46875 -0.734375 -3.34375 -0.734375q-2.59375 0 -4.4375 1.046875q-1.828125 1.03125 -2.765625 3.0q-0.921875 1.953125 -0.921875 4.828125q0 2.9375 1.234375 5.109375q1.234375 2.15625 3.59375 3.359375q2.375 1.1875 5.640625 1.1875q2.265625 0 4.03125 -0.65625q1.765625 -0.671875 3.828125 -2.265625l5.0 7.0625q-2.0625 1.796875 -4.40625 2.9375q-2.328125 1.125 -4.765625 1.6875q-2.421875 0.578125 -4.828125 0.578125z" fill-rule="nonzero"/><path fill="#1155cc" d="m29.265625 153.67188q-5.140625 0 -9.203125 -2.390625q-4.0625 -2.40625 -6.4375 -6.578125q-2.359375 -4.171875 -2.359375 -9.4375q0 -5.265625 2.359375 -9.421875q2.375 -4.171875 6.4375 -6.5625q4.0625 -2.40625 9.203125 -2.40625q4.734375 0 8.6875 1.671875q3.96875 1.65625 6.3125 4.65625l-5.796875 6.9375q-0.9375 -1.0625 -2.203125 -2.0q-1.265625 -0.9375 -2.796875 -1.46875q-1.53125 -0.53125 -3.203125 -0.53125q-2.53125 0 -4.46875 1.171875q-1.9375 1.15625 -3.0 3.234375q-1.0625 2.0625 -1.0625 4.71875q0 2.53125 1.09375 4.609375q1.109375 2.0625 3.03125 3.265625q1.9375 1.1875 4.40625 1.1875q1.734375 0 3.1875 -0.421875q1.46875 -0.4375 2.703125 -1.296875q1.234375 -0.875 2.3125 -2.140625l5.71875 7.0q-2.265625 2.859375 -6.296875 4.53125q-4.03125 1.671875 -8.625 1.671875zm37.452713 0q-5.53125 0 -9.828125 -2.390625q-4.296875 -2.40625 -6.796875 -6.53125q-2.5 -4.140625 -2.5 -9.484375q0 -5.328125 2.5 -9.453125q2.5 -4.140625 6.796875 -6.53125q4.296875 -2.40625 9.828125 -2.40625q5.53125 0 9.828125 2.40625q4.3125 2.390625 6.765625 6.53125q2.46875 4.125 2.46875 9.453125q0 5.34375 -2.46875 9.484375q-2.453125 4.125 -6.765625 6.53125q-4.296875 2.390625 -9.828125 2.390625zm0 -9.203125q2.40625 0 4.265625 -1.203125q1.875 -1.203125 2.9375 -3.265625q1.0625 -2.0625 1.0 -4.734375q0.0625 -2.65625 -1.0 -4.75q-1.0625 -2.109375 -2.9375 -3.3125q-1.859375 -1.203125 -4.265625 -1.203125q-2.390625 0 -4.296875 1.203125q-1.890625 1.203125 -2.96875 3.3125q-1.0625 2.09375 -1.0 4.75q-0.0625 2.671875 1.0 4.734375q1.078125 2.0625 2.96875 3.265625q1.90625 1.203125 4.296875 1.203125zm26.007965 8.53125l0 -35.390625l10.125 0l0.328125 6.390625l-1.390625 0.078125q0.796875 -1.734375 2.03125 -3.0625q1.234375 -1.34375 2.796875 -2.234375q1.5625 -0.90625 3.265625 -1.375q1.703125 -0.46875 3.4375 -0.46875q2.59375 0 4.71875 0.796875q2.140625 0.796875 3.734375 2.578125q1.609375 1.765625 2.546875 4.765625l-1.671875 -0.140625l0.53125 -1.0625q0.875 -1.609375 2.234375 -2.90625q1.375 -1.296875 3.03125 -2.1875q1.671875 -0.90625 3.46875 -1.375q1.796875 -0.46875 3.46875 -0.46875q4.203125 0 7.0 1.640625q2.796875 1.625 4.21875 4.890625q1.4375 3.265625 1.4375 7.9375l0 21.59375l-10.71875 0l0 -20.734375q0 -2.125 -0.609375 -3.515625q-0.59375 -1.40625 -1.765625 -2.109375q-1.171875 -0.703125 -2.890625 -0.703125q-1.40625 0 -2.578125 0.46875q-1.15625 0.46875 -2.0 1.265625q-0.828125 0.796875 -1.296875 1.875q-0.46875 1.0625 -0.46875 2.390625l0 21.0625l-10.734375 0l0 -20.796875q0 -2.0 -0.59375 -3.390625q-0.59375 -1.40625 -1.796875 -2.140625q-1.203125 -0.734375 -2.796875 -0.734375q-1.40625 0 -2.578125 0.46875q-1.15625 0.46875 -2.0 1.265625q-0.828125 0.796875 -1.296875 1.875q-0.46875 1.0625 -0.46875 2.328125l0 21.125l-10.71875 0zm64.18591 14.671875l0 -50.0625l10.125 0l0.40625 7.921875l-2.0 -0.59375q0.46875 -2.203125 2.265625 -4.0q1.796875 -1.796875 4.5625 -2.890625q2.765625 -1.109375 5.828125 -1.109375q4.546875 0 8.078125 2.375q3.53125 2.359375 5.5625 6.46875q2.03125 4.09375 2.03125 9.484375q0 5.34375 -2.03125 9.484375q-2.03125 4.125 -5.609375 6.484375q-3.5625 2.359375 -8.15625 2.359375q-3.0 0 -5.734375 -1.125q-2.734375 -1.140625 -4.609375 -3.0625q-1.859375 -1.9375 -2.453125 -4.203125l2.46875 -0.9375l0 23.40625l-10.734375 0zm18.46875 -23.078125q2.390625 0 4.1875 -1.15625q1.8125 -1.171875 2.796875 -3.234375q1.0 -2.0625 1.0 -4.9375q0 -2.796875 -1.0 -4.890625q-0.984375 -2.109375 -2.765625 -3.265625q-1.765625 -1.171875 -4.21875 -1.171875q-2.46875 0 -4.28125 1.140625q-1.796875 1.125 -2.796875 3.265625q-1.0 2.125 -1.0 4.921875q0 2.875 1.0 4.9375q1.0 2.0625 2.796875 3.234375q1.8125 1.15625 4.28125 1.15625zm37.52028 9.140625q-3.9375 0 -6.703125 -1.703125q-2.765625 -1.703125 -4.265625 -4.890625q-1.5 -3.203125 -1.5 -7.671875l0 -21.859375l10.734375 0l0 20.390625q0 2.140625 0.65625 3.671875q0.671875 1.53125 2.0 2.375q1.34375 0.828125 3.21875 0.828125q1.390625 0 2.546875 -0.46875q1.171875 -0.46875 2.0 -1.296875q0.84375 -0.84375 1.3125 -1.9375q0.46875 -1.109375 0.46875 -2.4375l0 -21.125l10.734375 0l0 35.390625l-10.078125 0l-0.453125 -7.265625l2.0 -0.796875q-0.8125 2.53125 -2.6875 4.5q-1.859375 1.96875 -4.453125 3.140625q-2.59375 1.15625 -5.53125 1.15625zm33.66838 -0.734375l0 -44.328125l10.656265 0l0 44.328125l-10.656265 0zm-6.265625 -26.0625l0 -9.328125l23.79689 0l0 9.328125l-23.79689 0z" fill-rule="nonzero"/><path fill="#a4c2f4" d="m307.7013 153.0l0 -35.390625l10.125 0l0.34375 7.1875l-2.140625 0.8125q0.734375 -2.40625 2.625 -4.375q1.90625 -1.96875 4.578125 -3.15625q2.671875 -1.203125 5.59375 -1.203125q4.0 0 6.734375 1.640625q2.734375 1.625 4.125 4.859375q1.40625 3.234375 1.40625 7.890625l0 21.734375l-10.734375 0l0 -20.859375q0 -2.140625 -0.59375 -3.53125q-0.59375 -1.40625 -1.828125 -2.109375q-1.234375 -0.703125 -3.03125 -0.625q-1.40625 0 -2.609375 0.4375q-1.203125 0.421875 -2.078125 1.265625q-0.859375 0.828125 -1.359375 1.890625q-0.5 1.0625 -0.5 2.328125l0 21.203125l-5.265625 0q-1.859375 0 -3.203125 0q-1.328125 0 -2.1875 0zm58.529907 15.328125q-4.34375 0 -8.640625 -1.265625q-4.296875 -1.265625 -6.96875 -3.265625l3.734375 -7.46875q1.40625 0.9375 3.09375 1.640625q1.703125 0.703125 3.5625 1.09375q1.875 0.40625 3.8125 0.40625q3.40625 0 5.53125 -1.0q2.140625 -1.0 3.203125 -3.03125q1.0625 -2.03125 1.0625 -5.109375l0 -5.921875l2.0625 0.328125q-0.46875 2.203125 -2.296875 4.0q-1.828125 1.796875 -4.5 2.90625q-2.65625 1.09375 -5.65625 1.09375q-4.8125 0 -8.578125 -2.234375q-3.765625 -2.234375 -5.9375 -6.203125q-2.15625 -3.96875 -2.15625 -9.15625q0 -5.34375 2.125 -9.4375q2.140625 -4.09375 5.875 -6.453125q3.734375 -2.375 8.390625 -2.375q2.0 0 3.828125 0.46875q1.84375 0.46875 3.40625 1.234375q1.578125 0.765625 2.796875 1.796875q1.234375 1.03125 2.0 2.234375q0.78125 1.1875 1.046875 2.46875l-2.203125 0.53125l0.390625 -8.0l10.140625 0l0 32.53125q0 4.328125 -1.3125 7.6875q-1.296875 3.375 -3.796875 5.734375q-2.484375 2.375 -6.03125 3.5625q-3.53125 1.203125 -7.984375 1.203125zm0.265625 -23.859375q2.59375 0 4.484375 -1.15625q1.90625 -1.171875 2.9375 -3.234375q1.03125 -2.078125 1.03125 -4.875q0 -2.796875 -1.03125 -4.890625q-1.03125 -2.109375 -2.9375 -3.265625q-1.890625 -1.171875 -4.484375 -1.171875q-2.546875 0 -4.40625 1.171875q-1.859375 1.15625 -2.90625 3.265625q-1.03125 2.09375 -1.03125 4.890625q0 2.796875 1.03125 4.875q1.046875 2.0625 2.90625 3.234375q1.859375 1.15625 4.40625 1.15625z" fill-rule="nonzero"/><path fill="#a4c2f4" d="m29.265625 233.67188q-5.140625 0 -9.203125 -2.390625q-4.0625 -2.40625 -6.4375 -6.578125q-2.359375 -4.171875 -2.359375 -9.4375q0 -5.265625 2.359375 -9.421875q2.375 -4.171875 6.4375 -6.5625q4.0625 -2.40625 9.203125 -2.40625q4.734375 0 8.6875 1.671875q3.96875 1.65625 6.3125 4.65625l-5.796875 6.9375q-0.9375 -1.0625 -2.203125 -2.0q-1.265625 -0.9375 -2.796875 -1.46875q-1.53125 -0.53125 -3.203125 -0.53125q-2.53125 0 -4.46875 1.171875q-1.9375 1.15625 -3.0 3.234375q-1.0625 2.0625 -1.0625 4.71875q0 2.53125 1.09375 4.609375q1.109375 2.0625 3.03125 3.265625q1.9375 1.1875 4.40625 1.1875q1.734375 0 3.1875 -0.421875q1.46875 -0.4375 2.703125 -1.296875q1.234375 -0.875 2.3125 -2.140625l5.71875 7.0q-2.265625 2.859375 -6.296875 4.53125q-4.03125 1.671875 -8.625 1.671875zm37.452713 0q-5.53125 0 -9.828125 -2.390625q-4.296875 -2.40625 -6.796875 -6.53125q-2.5 -4.140625 -2.5 -9.484375q0 -5.328125 2.5 -9.453125q2.5 -4.140625 6.796875 -6.53125q4.296875 -2.40625 9.828125 -2.40625q5.53125 0 9.828125 2.40625q4.3125 2.390625 6.765625 6.53125q2.46875 4.125 2.46875 9.453125q0 5.34375 -2.46875 9.484375q-2.453125 4.125 -6.765625 6.53125q-4.296875 2.390625 -9.828125 2.390625zm0 -9.203125q2.40625 0 4.265625 -1.203125q1.875 -1.203125 2.9375 -3.265625q1.0625 -2.0625 1.0 -4.734375q0.0625 -2.65625 -1.0 -4.75q-1.0625 -2.109375 -2.9375 -3.3125q-1.859375 -1.203125 -4.265625 -1.203125q-2.390625 0 -4.296875 1.203125q-1.890625 1.203125 -2.96875 3.3125q-1.0625 2.09375 -1.0 4.75q-0.0625 2.671875 1.0 4.734375q1.078125 2.0625 2.96875 3.265625q1.90625 1.203125 4.296875 1.203125zm26.132965 8.53125l0 -49.328125l10.671875 0l0 49.328125l-10.671875 0zm20.263535 0l0 -49.328125l10.671875 0l0 49.328125l-10.671875 0zm36.393738 0.671875q-5.859375 0 -10.203125 -2.359375q-4.328125 -2.375 -6.734375 -6.46875q-2.390625 -4.109375 -2.390625 -9.375q0 -4.0625 1.328125 -7.453125q1.34375 -3.40625 3.734375 -5.90625q2.40625 -2.5 5.703125 -3.859375q3.296875 -1.375 7.234375 -1.375q3.734375 0 6.828125 1.328125q3.109375 1.328125 5.375 3.734375q2.265625 2.40625 3.453125 5.671875q1.203125 3.265625 1.078125 7.125l-0.078125 2.875l-28.1875 0l-1.53125 -6.0l21.0625 0l-1.140625 1.265625l0 -1.34375q-0.125 -1.65625 -1.03125 -2.953125q-0.890625 -1.3125 -2.359375 -2.046875q-1.46875 -0.734375 -3.34375 -0.734375q-2.59375 0 -4.4375 1.046875q-1.828125 1.03125 -2.765625 3.0q-0.921875 1.953125 -0.921875 4.828125q0 2.9375 1.234375 5.109375q1.234375 2.15625 3.59375 3.359375q2.375 1.1875 5.640625 1.1875q2.265625 0 4.03125 -0.65625q1.765625 -0.671875 3.828125 -2.265625l5.0 7.0625q-2.0625 1.796875 -4.40625 2.9375q-2.328125 1.125 -4.765625 1.6875q-2.421875 0.578125 -4.828125 0.578125zm37.7325 0q-5.140625 0 -9.203125 -2.390625q-4.0625 -2.40625 -6.4375 -6.578125q-2.359375 -4.171875 -2.359375 -9.4375q0 -5.265625 2.359375 -9.421875q2.375 -4.171875 6.4375 -6.5625q4.0625 -2.40625 9.203125 -2.40625q4.734375 0 8.6875 1.671875q3.96875 1.65625 6.3125 4.65625l-5.796875 6.9375q-0.9375 -1.0625 -2.203125 -2.0q-1.265625 -0.9375 -2.796875 -1.46875q-1.53125 -0.53125 -3.203125 -0.53125q-2.53125 0 -4.46875 1.171875q-1.9375 1.15625 -3.0 3.234375q-1.0625 2.0625 -1.0625 4.71875q0 2.53125 1.09375 4.609375q1.109375 2.0625 3.03125 3.265625q1.9375 1.1875 4.40625 1.1875q1.734375 0 3.1875 -0.421875q1.46875 -0.4375 2.703125 -1.296875q1.234375 -0.875 2.3125 -2.140625l5.71875 7.0q-2.265625 2.859375 -6.296875 4.53125q-4.03125 1.671875 -8.625 1.671875zm23.733963 -0.671875l0 -44.328125l10.65625 0l0 44.328125l-10.65625 0zm-6.265625 -26.0625l0 -9.328125l23.796875 0l0 9.328125l-23.796875 0zm30.451096 26.0625l0 -35.390625l10.671875 0l0 35.390625l-10.671875 0zm5.34375 -42.390625q-3.0 0 -4.703125 -1.4375q-1.703125 -1.4375 -1.703125 -4.09375q0 -2.40625 1.734375 -3.9375q1.734375 -1.53125 4.671875 -1.53125q3.0 0 4.65625 1.4375q1.671875 1.421875 1.671875 4.03125q0 2.46875 -1.703125 4.0q-1.703125 1.53125 -4.625 1.53125zm26.185257 42.390625l-14.796875 -35.390625l11.796875 0l8.796875 26.453125l-2.59375 0.265625l9.0625 -26.71875l11.671875 0l-15.53125 35.390625l-8.40625 0zm45.327087 0.671875q-5.859375 0 -10.203125 -2.359375q-4.328125 -2.375 -6.734375 -6.46875q-2.390625 -4.109375 -2.390625 -9.375q0 -4.0625 1.328125 -7.453125q1.34375 -3.40625 3.734375 -5.90625q2.40625 -2.5 5.703125 -3.859375q3.296875 -1.375 7.234375 -1.375q3.734375 0 6.828125 1.328125q3.109375 1.328125 5.375 3.734375q2.265625 2.40625 3.453125 5.671875q1.203125 3.265625 1.078125 7.125l-0.078125 2.875l-28.1875 0l-1.53125 -6.0l21.0625 0l-1.140625 1.265625l0 -1.34375q-0.125 -1.65625 -1.03125 -2.953125q-0.890625 -1.3125 -2.359375 -2.046875q-1.46875 -0.734375 -3.34375 -0.734375q-2.59375 0 -4.4375 1.046875q-1.828125 1.03125 -2.765625 3.0q-0.921875 1.953125 -0.921875 4.828125q0 2.9375 1.234375 5.109375q1.234375 2.15625 3.59375 3.359375q2.375 1.1875 5.640625 1.1875q2.265625 0 4.03125 -0.65625q1.765625 -0.671875 3.828125 -2.265625l5.0 7.0625q-2.0625 1.796875 -4.40625 2.9375q-2.328125 1.125 -4.765625 1.6875q-2.421875 0.578125 -4.828125 0.578125z" fill-rule="nonzero"/><path fill="#000000" fill-opacity="0.0" d="m274.85828 152.84515c9.711853 -8.240631 25.05426 -33.616806 11.31958 -33.616806c-13.443634 0 -5.2073364 30.009567 7.546417 33.616806" fill-rule="evenodd"/><path stroke="#1255cc" stroke-width="8.0" stroke-linejoin="round" stroke-linecap="butt" d="m274.85828 152.84515c9.711853 -8.240631 25.05426 -33.616806 11.31958 -33.616806c-13.443634 0 -5.2073364 30.009567 7.546417 33.616806" fill-rule="evenodd"/><path fill="#1255cc" d="m271.04266 152.75854l0 0c0 -2.2178345 1.7626343 -4.015747 3.9369812 -4.015747l0 0c1.0441589 0 2.0455627 0.42308044 2.783905 1.176178c0.73831177 0.7531128 1.1531067 1.7745209 1.1531067 2.839569l0 0c0 2.2178345 -1.7626343 4.015747 -3.9370117 4.015747l0 0c-2.174347 0 -3.9369812 -1.7979126 -3.9369812 -4.015747z" fill-rule="evenodd"/><path fill="#1255cc" d="m289.26883 152.69249l0 0c0 -2.2178345 1.7626648 -4.015747 3.9370117 -4.015747l0 0c1.0441589 0 2.0455322 0.42308044 2.7838745 1.176178c0.7383423 0.75309753 1.1531372 1.7745209 1.1531372 2.839569l0 0c0 2.2178345 -1.7626648 4.015747 -3.9370117 4.015747l0 0c-2.174347 0 -3.9370117 -1.7979126 -3.9370117 -4.015747z" fill-rule="evenodd"/><path fill="#a4c2f4" d="m280.0866 102.62992l0 0c0 -3.374588 3.116394 -6.110237 6.9606323 -6.110237l0 0c3.8442383 0 6.9606323 2.735649 6.9606323 6.110237l0 0c0 3.374588 -3.116394 6.110237 -6.9606323 6.110237l0 0c-3.8442383 0 -6.9606323 -2.735649 -6.9606323 -6.110237z" fill-rule="evenodd"/></g></svg>