<svg xmlns="http://www.w3.org/2000/svg" xmlns:xlink="http://www.w3.org/1999/xlink" viewBox="0 0 100 60" fill="none" stroke="none" stroke-linecap="square" stroke-miterlimit="10" xmlns:v="https://vecta.io/nano"><clipPath id="A"><path d="M0 0h100v60H0V0z"/></clipPath><g clip-path="url(#A)"><g fill="#000" fill-rule="evenodd"><path fill-opacity="0" d="M0 0h100v60H0z"/><path fill-opacity="0" d="M0 0h99.843v62.866H0z"/></g><path fill="#15c" d="M3.141 17.36v-8.5h2.422l.125 2.766-.484-.516q.188-.687.625-1.234.438-.547 1.031-.859.594-.328 1.266-.328.297 0 .531.047.25.047.469.109l-.703 2.828q-.187-.109-.484-.172-.297-.078-.609-.078-.359 0-.656.125-.297.109-.516.344-.203.219-.328.531-.109.297-.109.688v4.25H3.141zm10.975.156q-1.406 0-2.453-.562-1.031-.562-1.609-1.547-.578-.984-.578-2.25 0-.984.313-1.797.328-.812.906-1.406.578-.609 1.359-.937.797-.328 1.734-.328.906 0 1.641.328.75.313 1.297.891.547.578.828 1.359.281.781.25 1.703l-.016.688h-6.766l-.359-1.437h5.047l-.266.313v-.328q-.031-.391-.25-.703-.219-.312-.578-.484-.344-.187-.797-.187-.625 0-1.062.25-.437.25-.672.719-.219.469-.219 1.156 0 .703.297 1.234.297.516.859.813.578.281 1.359.281.547 0 .969-.156.422-.172.922-.547l1.203 1.688q-.5.438-1.062.719-.562.266-1.141.391-.578.141-1.156.141z"/><path fill="#a4c2f4" d="M22.304 17.516q-1.25 0-2.203-.391-.953-.406-1.516-1.078l1.563-1.344q.5.5 1.109.734.625.219 1.188.219.234 0 .406-.047.172-.047.281-.125.125-.094.188-.203.078-.125.078-.297 0-.312-.297-.484-.141-.078-.484-.187-.328-.125-.859-.266-.75-.187-1.312-.453-.547-.266-.891-.625-.328-.328-.5-.734-.172-.406-.172-.922 0-.594.281-1.062.281-.484.75-.828.469-.359 1.078-.547.625-.187 1.281-.187.703 0 1.344.156.641.156 1.188.453.563.281.984.688l-1.344 1.5q-.281-.266-.641-.484-.359-.219-.75-.344-.375-.125-.703-.125-.234 0-.422.047-.187.031-.312.125-.125.078-.187.203-.062.109-.062.281 0 .156.078.297.094.141.25.25.156.094.5.219.359.109.969.281.75.219 1.297.469.547.25.875.609.25.266.375.625.125.359.125.781 0 .813-.453 1.453-.453.625-1.25.984-.797.359-1.828.359zm5.061 3.359V8.86h2.422l.094 1.906-.469-.141q.109-.531.531-.953.438-.437 1.094-.703.672-.266 1.406-.266 1.094 0 1.938.578.859.563 1.344 1.547.484.984.484 2.281 0 1.281-.484 2.281-.484.984-1.344 1.547-.859.563-1.969.563-.719 0-1.375-.266-.656-.281-1.109-.734-.437-.469-.578-1.016l.594-.219v5.609h-2.578zm4.422-5.531q.578 0 1.016-.281.438-.281.672-.766.234-.5.234-1.187 0-.672-.234-1.172-.234-.516-.672-.797-.422-.281-1.016-.281-.594 0-1.031.281-.422.266-.672.781-.234.516-.234 1.188 0 .688.234 1.188.25.484.672.766.438.281 1.031.281zm10.122 2.172q-1.328 0-2.359-.562-1.031-.578-1.641-1.562-.594-1-.594-2.281 0-1.281.594-2.266.609-1 1.641-1.578 1.031-.578 2.359-.578 1.328 0 2.359.578 1.031.578 1.625 1.578.594.984.594 2.266 0 1.281-.594 2.281-.594.984-1.625 1.563-1.031.563-2.359.563zm0-2.203q.578 0 1.016-.281.453-.297.703-.781.266-.5.25-1.141.016-.641-.25-1.141-.25-.516-.703-.797-.437-.297-1.016-.297-.578 0-1.047.297-.453.281-.703.797-.25.5-.234 1.141-.016.641.234 1.141.25.484.703.781.469.281 1.047.281zm6.256 2.047v-8.5h2.422l.078 1.734-.5.188q.172-.578.625-1.047.453-.469 1.094-.75.641-.297 1.344-.297.969 0 1.625.391.656.391.984 1.172.344.766.344 1.891v5.219h-2.578v-5.016q0-.5-.156-.828-.141-.344-.437-.516-.281-.172-.719-.156-.344 0-.625.109-.281.109-.5.313-.203.188-.328.453-.109.25-.109.547v5.094h-1.266q-.453 0-.781 0-.312 0-.516 0zm13.019.156q-1.25 0-2.203-.391-.953-.406-1.516-1.078l1.563-1.344q.5.5 1.109.734.625.219 1.188.219.234 0 .406-.047.172-.047.281-.125.125-.094.188-.203.078-.125.078-.297 0-.312-.297-.484-.141-.078-.484-.187-.328-.125-.859-.266-.75-.187-1.312-.453-.547-.266-.891-.625-.328-.328-.5-.734-.172-.406-.172-.922 0-.594.281-1.062.281-.484.75-.828.469-.359 1.078-.547.625-.187 1.281-.187.703 0 1.344.156.641.156 1.188.453.563.281.984.688l-1.344 1.5q-.281-.266-.641-.484-.359-.219-.75-.344-.375-.125-.703-.125-.234 0-.422.047-.187.031-.312.125-.125.078-.187.203-.062.109-.062.281 0 .156.078.297.094.141.25.25.156.094.5.219.359.109.969.281.75.219 1.297.469.547.25.875.609.25.266.375.625.125.359.125.781 0 .813-.453 1.453-.453.625-1.25.984-.797.359-1.828.359zm5.201-.156v-8.5h2.563v8.5h-2.562zm1.281-10.172q-.719 0-1.125-.344-.406-.344-.406-.984 0-.578.406-.937.422-.375 1.125-.375.719 0 1.109.344.406.344.406.969 0 .594-.406.969-.406.359-1.109.359zm8.776 10.344q-.578 0-1.109-.156-.516-.156-.937-.422-.422-.281-.703-.641-.281-.359-.375-.75l.547-.187-.141 1.969h-2.375V5.516h2.578v5.375l-.531-.187q.094-.422.359-.781.281-.359.688-.641.422-.281.906-.437.5-.156 1.031-.156 1.109 0 1.953.578.859.563 1.359 1.563.5 1 .5 2.281 0 1.297-.484 2.297-.484 1-1.344 1.563-.844.563-1.922.563zm-.672-2.156q.578 0 1.016-.281.438-.297.656-.797.234-.5.234-1.187 0-.672-.234-1.187-.219-.516-.656-.781-.437-.281-1.016-.281-.594 0-1.031.281-.422.266-.672.781-.234.516-.234 1.188 0 .688.234 1.188.25.5.672.797.438.281 1.031.281zm6.122 1.984V5.516h2.563V17.36h-2.562zm8.735.156q-1.406 0-2.453-.562-1.031-.562-1.609-1.547-.578-.984-.578-2.25 0-.984.313-1.797.328-.812.906-1.406.578-.609 1.359-.937.797-.328 1.734-.328.906 0 1.641.328.75.313 1.297.891.547.578.828 1.359.281.781.25 1.703l-.016.688h-6.766l-.359-1.437h5.047l-.266.313v-.328q-.031-.391-.25-.703-.219-.312-.578-.484-.344-.187-.797-.187-.625 0-1.062.25-.437.25-.672.719-.219.469-.219 1.156 0 .703.297 1.234.297.516.859.813.578.281 1.359.281.547 0 .969-.156.422-.172.922-.547l1.203 1.688q-.5.438-1.062.719-.562.266-1.141.391-.578.141-1.156.141z"/><path fill="#15c" d="M6.859 36.716q-1.234 0-2.203-.562-.969-.578-1.547-1.578-.562-1-.562-2.266 0-1.266.563-2.266.578-1 1.547-1.578.969-.578 2.203-.578 1.141 0 2.094.406.953.391 1.516 1.109l-1.391 1.672q-.234-.266-.547-.484-.297-.219-.672-.344-.359-.141-.75-.141-.609 0-1.078.281-.469.281-.719.781-.25.5-.25 1.141 0 .609.25 1.109.266.484.734.781.469.281 1.063.281.406 0 .75-.094.359-.109.656-.312.297-.219.563-.531l1.375 1.688q-.547.688-1.516 1.094-.969.391-2.078.391zm9.001 0q-1.328 0-2.359-.562-1.031-.578-1.641-1.562-.594-1-.594-2.281 0-1.281.594-2.266.609-1 1.641-1.578 1.031-.578 2.359-.578 1.328 0 2.359.578 1.031.578 1.625 1.578.594.984.594 2.266 0 1.281-.594 2.281-.594.984-1.625 1.563-1.031.563-2.359.563zm0-2.203q.578 0 1.016-.281.453-.297.703-.781.266-.5.25-1.141.016-.641-.25-1.141-.25-.516-.703-.797-.437-.297-1.016-.297-.578 0-1.047.297-.453.281-.703.797-.25.5-.234 1.141-.016.641.234 1.141.25.484.703.781.469.281 1.047.281zm6.24 2.047v-8.5h2.422l.078 1.547-.328.016q.188-.422.484-.734.297-.328.672-.547.375-.219.781-.328.406-.109.828-.109.625 0 1.141.203.516.188.891.609.391.422.609 1.141l-.406-.031.141-.25q.203-.391.531-.703.328-.312.719-.531.406-.219.828-.328.438-.109.844-.109 1.016 0 1.688.391.672.391 1.016 1.188.344.781.344 1.891v5.188h-2.578v-4.969q0-.516-.156-.844-.141-.344-.422-.516-.281-.172-.687-.172-.344 0-.625.125-.281.109-.484.297-.187.188-.297.453-.109.25-.109.563v5.063h-2.578v-4.984q0-.484-.156-.812-.141-.344-.437-.516-.281-.187-.656-.187-.344 0-.625.125-.281.109-.484.297-.187.188-.297.453-.109.25-.109.547v5.078h-2.578zm15.408 3.516V28.06h2.422l.094 1.906-.469-.141q.109-.531.531-.953.438-.437 1.094-.703.672-.266 1.406-.266 1.094 0 1.938.578.859.563 1.344 1.547.484.984.484 2.281 0 1.281-.484 2.281-.484.984-1.344 1.547-.859.563-1.969.563-.719 0-1.375-.266-.656-.281-1.109-.734-.437-.469-.578-1.016l.594-.219v5.609h-2.578zm4.422-5.531q.578 0 1.016-.281.438-.281.672-.766.234-.5.234-1.187 0-.672-.234-1.172-.234-.516-.672-.797-.422-.281-1.016-.281-.594 0-1.031.281-.422.266-.672.781-.234.516-.234 1.188 0 .688.234 1.188.25.484.672.766.438.281 1.031.281zm9.013 2.188q-.937 0-1.609-.406-.656-.406-1.016-1.172-.359-.766-.359-1.844v-5.25h2.563v4.906q0 .5.156.875.172.359.484.563.328.203.781.203.328 0 .609-.109.281-.109.469-.312.203-.203.313-.469.125-.266.125-.578V28.06h2.578v8.5h-2.422l-.109-1.75.484-.187q-.203.609-.656 1.078-.437.469-1.062.75-.625.281-1.328.281zm8.085-.172V25.919h2.563V36.56h-2.562zm-1.5-6.25v-2.25h5.703v2.25h-5.703z"/><g fill="#a4c2f4"><path d="M73.648 36.56v-8.5h2.422l.078 1.734-.5.188q.172-.578.625-1.047.453-.469 1.094-.75.641-.297 1.344-.297.969 0 1.625.391.656.391.984 1.172.344.766.344 1.891v5.219h-2.578v-5.016q0-.5-.156-.828-.141-.344-.437-.516-.281-.172-.719-.156-.344 0-.625.109-.281.109-.5.313-.203.188-.328.453-.109.25-.109.547v5.094h-1.266q-.453 0-.781 0-.312 0-.516 0zm14.051 3.688q-1.047 0-2.078-.312-1.031-.297-1.672-.781l.891-1.797q.344.234.75.391.406.172.844.266.453.094.922.094.813 0 1.328-.234.516-.234.766-.734.266-.484.266-1.219V34.5l.484.078q-.109.531-.547.969-.437.422-1.078.688-.641.266-1.359.266-1.156 0-2.062-.531-.906-.547-1.422-1.5-.516-.953-.516-2.187 0-1.281.5-2.266.516-.984 1.406-1.547.906-.578 2.031-.578.469 0 .906.109.453.109.828.297.375.188.672.438.297.25.469.531.188.281.25.594l-.516.125.094-1.922h2.422v7.813q0 1.047-.312 1.844-.312.813-.906 1.375-.594.578-1.453.859-.844.297-1.906.297zm.063-5.734q.625 0 1.078-.281.453-.281.703-.766.25-.5.25-1.172 0-.672-.25-1.172-.25-.516-.703-.797-.453-.281-1.078-.281-.609 0-1.062.281-.453.281-.703.797-.234.5-.234 1.172 0 .672.234 1.172.25.484.703.766.453.281 1.063.281zM6.859 55.916q-1.234 0-2.203-.562-.969-.578-1.547-1.578-.562-1-.562-2.266 0-1.266.563-2.266.578-1 1.547-1.578.969-.578 2.203-.578 1.141 0 2.094.406.953.391 1.516 1.109l-1.391 1.672q-.234-.266-.547-.484-.297-.219-.672-.344-.359-.141-.75-.141-.609 0-1.078.281-.469.281-.719.781-.25.5-.25 1.141 0 .609.25 1.109.266.484.734.781.469.281 1.063.281.406 0 .75-.094.359-.109.656-.312.297-.219.563-.531l1.375 1.688q-.547.688-1.516 1.094-.969.391-2.078.391zm9.001 0q-1.328 0-2.359-.562-1.031-.578-1.641-1.562-.594-1-.594-2.281 0-1.281.594-2.266.609-1 1.641-1.578 1.031-.578 2.359-.578 1.328 0 2.359.578 1.031.578 1.625 1.578.594.984.594 2.266 0 1.281-.594 2.281-.594.984-1.625 1.563-1.031.563-2.359.563zm0-2.203q.578 0 1.016-.281.453-.297.703-.781.266-.5.25-1.141.016-.641-.25-1.141-.25-.516-.703-.797-.437-.297-1.016-.297-.578 0-1.047.297-.453.281-.703.797-.25.5-.234 1.141-.016.641.234 1.141.25.484.703.781.469.281 1.047.281zm6.272 2.047V43.916h2.563V55.76h-2.562zm4.864 0V43.916h2.563V55.76h-2.562zm8.735.156q-1.406 0-2.453-.562-1.031-.562-1.609-1.547-.578-.984-.578-2.25 0-.984.313-1.797.328-.812.906-1.406.578-.609 1.359-.937.797-.328 1.734-.328.906 0 1.641.328.75.313 1.297.891.547.578.828 1.359.281.781.25 1.703l-.016.688h-6.766l-.359-1.437h5.047l-.266.313v-.328q-.031-.391-.25-.703-.219-.312-.578-.484-.344-.187-.797-.187-.625 0-1.062.25-.437.25-.672.719-.219.469-.219 1.156 0 .703.297 1.234.297.516.859.813.578.281 1.359.281.547 0 .969-.156.422-.172.922-.547l1.203 1.688q-.5.438-1.062.719-.562.266-1.141.391-.578.141-1.156.141zm9.048 0q-1.234 0-2.203-.562-.969-.578-1.547-1.578-.562-1-.562-2.266 0-1.266.563-2.266.578-1 1.547-1.578.969-.578 2.203-.578 1.141 0 2.094.406.953.391 1.516 1.109l-1.391 1.672q-.234-.266-.547-.484-.297-.219-.672-.344-.359-.141-.75-.141-.609 0-1.078.281-.469.281-.719.781-.25.5-.25 1.141 0 .609.25 1.109.266.484.734.781.469.281 1.063.281.406 0 .75-.094.359-.109.656-.312.297-.219.563-.531l1.375 1.688q-.547.688-1.516 1.094-.969.391-2.078.391zm5.704-.156V45.119h2.563V55.76h-2.562zm-1.5-6.25v-2.25h5.703v2.25h-5.703zm7.306 6.25v-8.5h2.563v8.5H56.29zm1.281-10.172q-.719 0-1.125-.344-.406-.344-.406-.984 0-.578.406-.937.422-.375 1.125-.375.719 0 1.109.344.406.344.406.969 0 .594-.406.969-.406.359-1.109.359zm6.292 10.172l-3.562-8.5h2.844l2.109 6.359-.625.063L66.8 47.26h2.797l-3.719 8.5h-2.016zm10.878.156q-1.406 0-2.453-.562-1.031-.562-1.609-1.547-.578-.984-.578-2.25 0-.984.313-1.797.328-.812.906-1.406.578-.609 1.359-.937.797-.328 1.734-.328.906 0 1.641.328.75.313 1.297.891.547.578.828 1.359.281.781.25 1.703l-.016.688h-6.766l-.359-1.437h5.047l-.266.313v-.328q-.031-.391-.25-.703-.219-.312-.578-.484-.344-.187-.797-.187-.625 0-1.062.25-.437.25-.672.719-.219.469-.219 1.156 0 .703.297 1.234.297.516.859.813.578.281 1.359.281.547 0 .969-.156.422-.172.922-.547l1.203 1.688q-.5.438-1.062.719-.562.266-1.141.391-.578.141-1.156.141z"/></g><path fill="#000" fill-opacity="0" d="M66.39 36.096c2.373-1.946 6.121-7.939 2.766-7.939-3.285 0-1.272 7.087 1.844 7.939" fill-rule="evenodd"/><path stroke="#1255cc" stroke-width="2" stroke-linejoin="round" stroke-linecap="butt" d="M66.39 36.096c2.373-1.946 6.121-7.939 2.766-7.939-3.285 0-1.272 7.087 1.844 7.939"/><g fill-rule="evenodd"><g fill="#1255cc"><use xlink:href="#C"/><path d="M69.911 36.056h0c0-.522.43-.945.961-.945h0a.97.97 0 0 1 .679.277c.18.177.281.418.281.668h0c0 .522-.43.945-.961.945h0c-.531 0-.961-.423-.961-.945z"/></g><path fill="#a4c2f4" d="M67.88 24.13h0c0-.8.761-1.449 1.701-1.449h0c.939 0 1.701.649 1.701 1.449h0c0 .8-.761 1.449-1.701 1.449h0c-.939 0-1.701-.649-1.701-1.449z"/></g></g><defs ><path id="C" d="M65.457 36.071h0c0-.522.43-.945.961-.945h0a.97.97 0 0 1 .679.277c.18.177.281.418.281.668h0c0 .522-.43.945-.961.945h0c-.531 0-.961-.423-.961-.945z"/></defs></svg>